<svg width="46" height="46" viewBox="0 0 46 46" fill="none" xmlns="http://www.w3.org/2000/svg">
<path fill-rule="evenodd" clip-rule="evenodd" d="M23.8244 1.69735L23 2.875L22.1756 1.69735C22.6706 1.35088 23.3294 1.35088 23.8244 1.69735ZM23 4.67188C22.6496 4.9452 22.202 5.30514 21.6849 5.7447C20.3773 6.85618 18.6354 8.46779 16.8972 10.4667C13.3858 14.5049 10.0625 19.9238 10.0625 25.875C10.0625 29.3062 11.4256 32.5969 13.8518 35.0232C16.2781 37.4494 19.5688 38.8125 23 38.8125C26.4312 38.8125 29.7219 37.4494 32.1482 35.0232C34.5744 32.5969 35.9375 29.3062 35.9375 25.875C35.9375 19.9238 32.6142 14.5049 29.1028 10.4667C27.3646 8.46779 25.6227 6.85618 24.3151 5.7447C23.798 5.30514 23.3504 4.9452 23 4.67188ZM22.1748 1.69796C22.1752 1.69764 22.1756 1.69735 23 2.875C23.8244 1.69735 23.8248 1.69764 23.8252 1.69796L23.8264 1.69879L23.8298 1.70115L23.8404 1.70865L23.8769 1.73465C23.908 1.75684 23.9523 1.78874 24.009 1.83012C24.1224 1.91286 24.2852 2.03358 24.4906 2.19052C24.9011 2.5043 25.4822 2.9635 26.1771 3.55413C27.5648 4.73366 29.4167 6.44627 31.2722 8.58018C34.9483 12.8076 38.8125 18.8887 38.8125 25.875C38.8125 30.0687 37.1465 34.0907 34.1811 37.0561C31.2157 40.0215 27.1937 41.6875 23 41.6875C18.8063 41.6875 14.7843 40.0215 11.8189 37.0561C8.85346 34.0907 7.1875 30.0687 7.1875 25.875C7.1875 18.8887 11.0517 12.8076 14.7278 8.58018C16.5833 6.44627 18.4352 4.73366 19.8229 3.55413C20.5178 2.9635 21.0989 2.5043 21.5094 2.19052C21.7148 2.03358 21.8776 1.91286 21.991 1.83012C22.0477 1.78874 22.092 1.75684 22.1231 1.73465L22.1596 1.70865L22.1702 1.70115L22.1736 1.69879L22.1748 1.69796Z" fill="#C1BFBF"/>
<path fill-rule="evenodd" clip-rule="evenodd" d="M31.7431 25.9139C32.5255 26.0486 33.0506 26.792 32.9159 27.5744C32.5631 29.6239 31.5828 31.5134 30.1104 32.982C28.638 34.4506 26.7461 35.426 24.6957 35.7736C23.913 35.9063 23.1709 35.3793 23.0382 34.5966C22.9055 33.8138 23.4325 33.0717 24.2152 32.9391C25.6787 32.691 27.0291 31.9947 28.0801 30.9465C29.1311 29.8982 29.8307 28.5495 30.0826 27.0867C30.2172 26.3043 30.9607 25.7792 31.7431 25.9139Z" fill="#C1BFBF"/>
</svg>
