<svg width="259" height="239" viewBox="0 0 259 239" fill="none" xmlns="http://www.w3.org/2000/svg">
<path d="M129.5 0V13.5248" stroke="#E6EAF5" stroke-width="3.34856" stroke-miterlimit="10"/>
<path d="M118.207 0.487061L119.397 13.9713" stroke="#E6EAF5" stroke-width="3.34856" stroke-miterlimit="10"/>
<path d="M107.008 1.96143L109.362 15.2834" stroke="#E6EAF5" stroke-width="3.34856" stroke-miterlimit="10"/>
<path d="M95.9856 4.40869L99.4885 17.4737" stroke="#E6EAF5" stroke-width="3.34856" stroke-miterlimit="10"/>
<path d="M85.2063 7.8042L89.8318 20.5175" stroke="#E6EAF5" stroke-width="3.34856" stroke-miterlimit="10"/>
<path d="M74.7652 12.1318L80.4862 24.3853" stroke="#E6EAF5" stroke-width="3.34856" stroke-miterlimit="10"/>
<path d="M64.7568 17.3525L71.5192 29.065" stroke="#E6EAF5" stroke-width="3.34856" stroke-miterlimit="10"/>
<path d="M55.2215 23.425L62.9848 34.5019" stroke="#E6EAF5" stroke-width="3.34856" stroke-miterlimit="10"/>
<path d="M46.2552 30.2947L54.9516 40.6547" stroke="#E6EAF5" stroke-width="3.34856" stroke-miterlimit="10"/>
<path d="M37.9237 37.9233L47.4992 47.4989" stroke="#E6EAF5" stroke-width="3.34856" stroke-miterlimit="10"/>
<path d="M30.2953 46.2554L40.6553 54.9518" stroke="#E6EAF5" stroke-width="3.34856" stroke-miterlimit="10"/>
<path d="M23.4251 55.2222L34.5019 62.9854" stroke="#E6EAF5" stroke-width="3.34856" stroke-miterlimit="10"/>
<path d="M17.3523 64.7568L29.0647 71.5192" stroke="#E6EAF5" stroke-width="3.34856" stroke-miterlimit="10"/>
<path d="M12.1316 74.7651L24.3851 80.4861" stroke="#E6EAF5" stroke-width="3.34856" stroke-miterlimit="10"/>
<path d="M7.80374 85.2065L20.5171 89.832" stroke="#E6EAF5" stroke-width="3.34856" stroke-miterlimit="10"/>
<path d="M4.40922 95.9856L17.4742 99.4885" stroke="#E6EAF5" stroke-width="3.34856" stroke-miterlimit="10"/>
<path d="M1.96128 107.008L15.2832 109.362" stroke="#E6EAF5" stroke-width="3.34856" stroke-miterlimit="10"/>
<path d="M243.717 149.638L257.039 151.992" stroke="#E6EAF5" stroke-width="3.34856" stroke-miterlimit="10"/>
<path d="M0.487333 118.206L13.9716 119.396" stroke="#E6EAF5" stroke-width="3.34856" stroke-miterlimit="10"/>
<path d="M245.029 139.604L258.513 140.794" stroke="#E6EAF5" stroke-width="3.34856" stroke-miterlimit="10"/>
<path d="M2.19345e-05 129.5H13.5248" stroke="#E6EAF5" stroke-width="3.34856" stroke-miterlimit="10"/>
<path d="M245.475 129.5H259" stroke="#E6EAF5" stroke-width="3.34856" stroke-miterlimit="10"/>
<path d="M0.487333 140.794L13.9716 139.604" stroke="#E6EAF5" stroke-width="3.34856" stroke-miterlimit="10"/>
<path d="M245.029 119.396L258.513 118.206" stroke="#E6EAF5" stroke-width="3.34856" stroke-miterlimit="10"/>
<path d="M1.96128 151.992L15.2832 149.638" stroke="#E6EAF5" stroke-width="3.34856" stroke-miterlimit="10"/>
<path d="M243.717 109.362L257.039 107.008" stroke="#E6EAF5" stroke-width="3.34856" stroke-miterlimit="10"/>
<path d="M241.526 99.4885L254.591 95.9856" stroke="#E6EAF5" stroke-width="3.34856" stroke-miterlimit="10"/>
<path d="M238.483 89.832L251.197 85.2065" stroke="#E6EAF5" stroke-width="3.34856" stroke-miterlimit="10"/>
<path d="M234.615 80.4861L246.868 74.7651" stroke="#E6EAF5" stroke-width="3.34856" stroke-miterlimit="10"/>
<path d="M229.935 71.5192L241.648 64.7568" stroke="#E6EAF5" stroke-width="3.34856" stroke-miterlimit="10"/>
<path d="M224.498 62.9854L235.575 55.2222" stroke="#E6EAF5" stroke-width="3.34856" stroke-miterlimit="10"/>
<path d="M218.345 54.9518L228.705 46.2554" stroke="#E6EAF5" stroke-width="3.34856" stroke-miterlimit="10"/>
<path d="M211.5 47.4989L221.076 37.9233" stroke="#E6EAF5" stroke-width="3.34856" stroke-miterlimit="10"/>
<path d="M204.049 40.6547L212.745 30.2947" stroke="#E6EAF5" stroke-width="3.34856" stroke-miterlimit="10"/>
<path d="M196.015 34.5019L203.778 23.425" stroke="#E6EAF5" stroke-width="3.34856" stroke-miterlimit="10"/>
<path d="M187.494 29.065L194.257 17.3525" stroke="#E6EAF5" stroke-width="3.34856" stroke-miterlimit="10"/>
<path d="M178.514 24.3853L184.235 12.1318" stroke="#E6EAF5" stroke-width="3.34856" stroke-miterlimit="10"/>
<path d="M169.168 20.5175L173.794 7.8042" stroke="#E6EAF5" stroke-width="3.34856" stroke-miterlimit="10"/>
<path d="M159.512 17.4737L163.015 4.40869" stroke="#E6EAF5" stroke-width="3.34856" stroke-miterlimit="10"/>
<path d="M149.638 15.2834L151.992 1.96143" stroke="#E6EAF5" stroke-width="3.34856" stroke-miterlimit="10"/>
<path d="M139.603 13.9713L140.793 0.487061" stroke="#E6EAF5" stroke-width="3.34856" stroke-miterlimit="10"/>
<path d="M129.5 0V13.5248" stroke="#FF9900" stroke-opacity="0.94" stroke-width="3.34856" stroke-miterlimit="10"/>
<path d="M118.207 0.487061L119.397 13.9713" stroke="#FF9900" stroke-opacity="0.94" stroke-width="3.34856" stroke-miterlimit="10"/>
<path d="M107.008 1.96143L109.362 15.2834" stroke="#FF9900" stroke-opacity="0.94" stroke-width="3.34856" stroke-miterlimit="10"/>
<path d="M95.9856 4.40869L99.4885 17.4737" stroke="#FF9900" stroke-opacity="0.94" stroke-width="3.34856" stroke-miterlimit="10"/>
<path d="M85.2063 7.8042L89.8318 20.5175" stroke="#FF9900" stroke-opacity="0.94" stroke-width="3.34856" stroke-miterlimit="10"/>
<path d="M74.7652 12.1318L80.4862 24.3853" stroke="#FF9900" stroke-opacity="0.94" stroke-width="3.34856" stroke-miterlimit="10"/>
<path d="M64.7568 17.3525L71.5192 29.065" stroke="#FF9900" stroke-opacity="0.94" stroke-width="3.34856" stroke-miterlimit="10"/>
<path d="M55.2215 23.425L62.9848 34.5019" stroke="#FF9900" stroke-opacity="0.94" stroke-width="3.34856" stroke-miterlimit="10"/>
<path d="M46.2552 30.2947L54.9516 40.6547" stroke="#FF9900" stroke-opacity="0.94" stroke-width="3.34856" stroke-miterlimit="10"/>
<path d="M37.9237 37.9233L47.4992 47.4989" stroke="#FF9900" stroke-opacity="0.94" stroke-width="3.34856" stroke-miterlimit="10"/>
<path d="M30.2953 46.2554L40.6553 54.9518" stroke="#FF9900" stroke-opacity="0.94" stroke-width="3.34856" stroke-miterlimit="10"/>
<path d="M23.4251 55.2222L34.5019 62.9854" stroke="#FF9900" stroke-opacity="0.94" stroke-width="3.34856" stroke-miterlimit="10"/>
<path d="M17.3523 64.7568L29.0647 71.5192" stroke="#FF9900" stroke-opacity="0.94" stroke-width="3.34856" stroke-miterlimit="10"/>
<path d="M12.1316 74.7651L24.3851 80.4861" stroke="#FF9900" stroke-opacity="0.94" stroke-width="3.34856" stroke-miterlimit="10"/>
<path d="M7.80374 85.2065L20.5171 89.832" stroke="#FF9900" stroke-opacity="0.94" stroke-width="3.34856" stroke-miterlimit="10"/>
<path d="M4.40922 95.9856L17.4742 99.4885" stroke="#FF9900" stroke-opacity="0.94" stroke-width="3.34856" stroke-miterlimit="10"/>
<path d="M1.96128 107.008L15.2832 109.362" stroke="#FF9900" stroke-opacity="0.94" stroke-width="3.34856" stroke-miterlimit="10"/>
<path d="M0.487333 118.206L13.9716 119.396" stroke="#FF9900" stroke-opacity="0.94" stroke-width="3.34856" stroke-miterlimit="10"/>
<path d="M2.19345e-05 129.5H13.5248" stroke="#FF9900" stroke-opacity="0.94" stroke-width="3.34856" stroke-miterlimit="10"/>
<path d="M0.487333 140.794L13.9716 139.604" stroke="#FF9900" stroke-opacity="0.94" stroke-width="3.34856" stroke-miterlimit="10"/>
<path d="M1.96128 151.992L15.2832 149.638" stroke="#FF9900" stroke-opacity="0.94" stroke-width="3.34856" stroke-miterlimit="10"/>
<path d="M187.494 29.065L194.257 17.3525" stroke="#FF9900" stroke-opacity="0.94" stroke-width="3.34856" stroke-miterlimit="10"/>
<path d="M178.514 24.3853L184.235 12.1318" stroke="#FF9900" stroke-opacity="0.94" stroke-width="3.34856" stroke-miterlimit="10"/>
<path d="M169.168 20.5175L173.794 7.8042" stroke="#FF9900" stroke-opacity="0.94" stroke-width="3.34856" stroke-miterlimit="10"/>
<path d="M159.512 17.4737L163.015 4.40869" stroke="#FF9900" stroke-opacity="0.94" stroke-width="3.34856" stroke-miterlimit="10"/>
<path d="M149.638 15.2834L151.992 1.96143" stroke="#FF9900" stroke-opacity="0.94" stroke-width="3.34856" stroke-miterlimit="10"/>
<path d="M139.603 13.9713L140.793 0.487061" stroke="#FF9900" stroke-opacity="0.94" stroke-width="3.34856" stroke-miterlimit="10"/>
<path d="M27.0969 149.984C24.8241 135.131 25.796 119.961 29.9458 105.519C34.0955 91.0768 41.3247 77.7051 51.1358 66.3238C60.9469 54.9424 73.1072 45.8216 86.7799 39.5887C100.453 33.3558 115.313 30.1589 130.34 30.2178C145.366 30.2768 160.201 33.5902 173.825 39.9302C187.448 46.2701 199.536 55.4861 209.258 66.9441C218.98 78.402 226.104 91.83 230.14 106.304C234.176 120.778 235.029 135.955 232.64 150.79L218.99 148.592C221.061 135.728 220.322 122.569 216.822 110.018C213.322 97.4676 207.145 85.8242 198.715 75.889C190.286 65.9539 179.804 57.9627 167.991 52.4654C156.178 46.968 143.315 44.0949 130.286 44.0438C117.256 43.9927 104.371 46.7648 92.5149 52.1693C80.6593 57.5738 70.1152 65.4825 61.608 75.3512C53.1008 85.2199 46.8324 96.8145 43.2342 109.337C39.6359 121.86 38.7932 135.013 40.764 147.893L27.0969 149.984Z" fill="#E5EBF3"/>
<path d="M27.0969 149.984C24.2863 131.616 26.4468 112.83 33.3536 95.58C40.2605 78.3295 51.6618 63.2438 66.3722 51.891C81.0827 40.5383 98.5654 33.3327 117.003 31.0235C135.441 28.7143 154.161 31.3856 171.217 38.7598L165.73 51.4505C150.941 45.0564 134.709 42.7401 118.721 44.7424C102.734 46.7448 87.5749 52.9926 74.8195 62.8366C62.064 72.6806 52.1781 85.7613 46.1891 100.719C40.2002 115.677 38.3269 131.966 40.764 147.893L27.0969 149.984Z" fill="url(#paint0_linear_38_858)"/>
<g filter="url(#filter0_d_38_858)">
<circle cx="174.393" cy="47.4834" r="12.95" fill="#FF9900"/>
<circle cx="174.393" cy="47.4834" r="12.95" stroke="white" stroke-width="6.69713"/>
</g>
<defs>
<filter id="filter0_d_38_858" x="146.933" y="24.4877" width="54.9209" height="54.9209" filterUnits="userSpaceOnUse" color-interpolation-filters="sRGB">
<feFlood flood-opacity="0" result="BackgroundImageFix"/>
<feColorMatrix in="SourceAlpha" type="matrix" values="0 0 0 0 0 0 0 0 0 0 0 0 0 0 0 0 0 0 127 0" result="hardAlpha"/>
<feOffset dy="4.46475"/>
<feGaussianBlur stdDeviation="5.58094"/>
<feColorMatrix type="matrix" values="0 0 0 0 0 0 0 0 0 0 0 0 0 0 0 0 0 0 0.15 0"/>
<feBlend mode="normal" in2="BackgroundImageFix" result="effect1_dropShadow_38_858"/>
<feBlend mode="normal" in="SourceGraphic" in2="effect1_dropShadow_38_858" result="shape"/>
</filter>
<linearGradient id="paint0_linear_38_858" x1="143.313" y1="33.2387" x2="-36.6916" y2="218.424" gradientUnits="userSpaceOnUse">
<stop stop-color="#EF8100"/>
<stop offset="1" stop-color="#E5EBF3" stop-opacity="0"/>
</linearGradient>
</defs>
</svg>
