<svg width="575" height="271" viewBox="0 0 575 271" fill="none" xmlns="http://www.w3.org/2000/svg">
<path d="M139.997 95.0625L139.124 112.091L127.847 113.811L138.959 114.791L140.327 134.062L141.719 115.031L152.736 113.811L141.672 112.331L139.997 95.0625Z" fill="#0B4654"/>
<path d="M564.025 76.375L563.282 90.9079L553.625 92.3804L563.143 93.2126L564.303 109.687L565.511 93.426L574.958 92.3804L565.464 91.1213L564.025 76.375Z" fill="#0B4654"/>
<path d="M17.2971 49.5625L16.0644 73.5424L8.01086e-05 75.9721L15.8332 77.3454L17.7593 104.53L19.7626 77.6975L35.4031 75.9721L19.6855 73.8945L17.2971 49.5625Z" fill="#0B4654"/>
<path d="M139.244 243.576L138.627 255.372L130.73 256.57L138.512 257.239L139.436 270.584L140.438 257.415L148.142 256.57L140.399 255.549L139.244 243.576Z" fill="#0B4654"/>
<path d="M243.963 0L243.052 17.738L230.958 19.5299L242.875 20.5507L244.317 40.625L245.835 20.8002L257.625 19.5299L245.759 17.9875L243.963 0Z" fill="#0B4654"/>
</svg>
