<svg width="30" height="30" viewBox="0 0 30 30" fill="none" xmlns="http://www.w3.org/2000/svg">
<path d="M5.625 26.875H3.75C3.40625 26.875 3.125 26.5938 3.125 26.25V13.75C3.125 13.4062 3.40625 13.125 3.75 13.125H5.625C5.96875 13.125 6.25 13.4062 6.25 13.75V26.25C6.25 26.5938 5.96875 26.875 5.625 26.875Z" fill="white"/>
<path d="M26.25 26.875H24.375C24.0312 26.875 23.75 26.5938 23.75 26.25V15.625C23.75 15.2812 24.0312 15 24.375 15H26.25C26.5938 15 26.875 15.2812 26.875 15.625V26.25C26.875 26.5938 26.5938 26.875 26.25 26.875Z" fill="white"/>
<path d="M12.5 26.875H10.625C10.2812 26.875 10 26.5938 10 26.25V8.75C10 8.40625 10.2812 8.125 10.625 8.125H12.5C12.8438 8.125 13.125 8.40625 13.125 8.75V26.25C13.125 26.5938 12.8438 26.875 12.5 26.875Z" fill="white"/>
<path d="M19.375 26.875H17.5C17.1562 26.875 16.875 26.5938 16.875 26.25V3.75C16.875 3.40625 17.1562 3.125 17.5 3.125H19.375C19.7188 3.125 20 3.40625 20 3.75V26.25C20 26.5938 19.7188 26.875 19.375 26.875Z" fill="white"/>
</svg>
