<svg width="22" height="22" viewBox="0 0 22 22" fill="none" xmlns="http://www.w3.org/2000/svg">
<path d="M14.3483 12.4805C14.0504 12.2238 13.8808 11.848 13.8808 11.4492V3.73091C13.8854 2.17716 12.5929 0.916748 11.0025 0.916748C9.41206 0.916748 8.11956 2.17716 8.11956 3.73091V11.4492C8.11956 11.848 7.94539 12.2238 7.64289 12.4897C6.42831 13.5484 5.82331 15.0655 5.98373 16.6513C6.21289 18.9476 8.08289 20.7992 10.4296 21.0513C10.6175 21.0697 10.8054 21.0834 10.9887 21.0834C12.2308 21.0834 13.4362 20.6388 14.3621 19.8276C15.43 18.8926 16.0396 17.5542 16.0396 16.1563C16.0441 14.7584 15.4254 13.4155 14.3483 12.4805ZM13.4041 18.7826C12.6296 19.4563 11.6304 19.768 10.59 19.658C8.94456 19.4792 7.58331 18.1318 7.41831 16.5184C7.30373 15.3818 7.73914 14.3001 8.60539 13.5438C9.21498 13.0122 9.56331 12.2513 9.56331 11.4538V3.73091C9.56331 2.95633 10.2096 2.32383 11.0025 2.32383C11.7954 2.32383 12.4416 2.95633 12.4416 3.73091V11.4492C12.4416 12.2513 12.79 13.0076 13.3904 13.5347C14.1604 14.2038 14.6004 15.1572 14.6004 16.1609C14.605 17.1601 14.165 18.1134 13.4041 18.7826Z" fill="#F6C788"/>
<path d="M11.4837 14.3413V3.73093C11.4837 3.46968 11.2683 3.26343 11.0025 3.26343C10.7366 3.26343 10.5212 3.46968 10.5212 3.73093V14.3413C9.55873 14.5568 8.83914 15.3909 8.83914 16.3947C8.83914 17.5588 9.80623 18.503 10.9979 18.503C12.1896 18.503 13.1566 17.5543 13.1566 16.3947C13.1612 15.3909 12.4416 14.5568 11.4837 14.3413ZM11.0025 17.568C10.3425 17.568 9.80164 17.0409 9.80164 16.3947C9.80164 15.7484 10.3379 15.2213 11.0025 15.2213C11.6671 15.2213 12.2033 15.7484 12.2033 16.3947C12.2033 17.0409 11.6625 17.568 11.0025 17.568Z" fill="#F6C788"/>
</svg>
