<svg width="29" height="29" viewBox="0 0 29 29" fill="none" xmlns="http://www.w3.org/2000/svg">
<path d="M18.9137 16.4514C18.521 16.113 18.2974 15.6176 18.2974 15.092V4.91784C18.3035 2.86971 16.5997 1.20825 14.5033 1.20825C12.4068 1.20825 10.7031 2.86971 10.7031 4.91784V15.092C10.7031 15.6176 10.4735 16.113 10.0747 16.4635C8.47368 17.8591 7.67618 19.8589 7.88763 21.9493C8.18972 24.9762 10.6547 27.417 13.7481 27.7493C13.9958 27.7735 14.2435 27.7916 14.4851 27.7916C16.1224 27.7916 17.7114 27.2055 18.9318 26.1362C20.3395 24.9037 21.1431 23.1395 21.1431 21.2968C21.1491 19.4541 20.3335 17.6839 18.9137 16.4514ZM17.6691 24.7587C16.6481 25.6468 15.331 26.0576 13.9595 25.9126C11.7906 25.677 9.99618 23.9008 9.77868 21.7741C9.62764 20.2758 10.2016 18.8499 11.3435 17.853C12.147 17.1522 12.6062 16.1493 12.6062 15.098V4.91784C12.6062 3.89679 13.4581 3.06304 14.5033 3.06304C15.5485 3.06304 16.4003 3.89679 16.4003 4.91784V15.092C16.4003 16.1493 16.8595 17.1462 17.651 17.841C18.666 18.723 19.246 19.9797 19.246 21.3028C19.252 22.6199 18.672 23.8766 17.6691 24.7587Z" fill="#DBDBDB"/>
<path d="M15.1377 18.9045V4.91801C15.1377 4.57363 14.8537 4.30176 14.5033 4.30176C14.1529 4.30176 13.8689 4.57363 13.8689 4.91801V18.9045C12.6002 19.1884 11.6516 20.288 11.6516 21.6111C11.6516 23.1457 12.9264 24.3903 14.4972 24.3903C16.0681 24.3903 17.3429 23.1397 17.3429 21.6111C17.3489 20.288 16.4004 19.1884 15.1377 18.9045ZM14.5033 23.1578C13.6333 23.1578 12.9204 22.463 12.9204 21.6111C12.9204 20.7593 13.6272 20.0645 14.5033 20.0645C15.3793 20.0645 16.0862 20.7593 16.0862 21.6111C16.0862 22.463 15.3733 23.1578 14.5033 23.1578Z" fill="#DBDBDB"/>
</svg>
