<svg width="50" height="50" viewBox="0 0 50 50" fill="none" xmlns="http://www.w3.org/2000/svg">
<path d="M32.6098 28.3645C31.9327 27.7812 31.5473 26.927 31.5473 26.0208V8.47909C31.5577 4.94784 28.6202 2.08325 25.0056 2.08325C21.3911 2.08325 18.4536 4.94784 18.4536 8.47909V26.0208C18.4536 26.927 18.0577 27.7812 17.3702 28.3853C14.6098 30.7916 13.2348 34.2395 13.5994 37.8437C14.1202 43.0624 18.3702 47.2708 23.7036 47.8437C24.1306 47.8853 24.5577 47.9166 24.9744 47.9166C27.7973 47.9166 30.5369 46.9062 32.6411 45.0624C35.0681 42.9374 36.4536 39.8958 36.4536 36.7187C36.464 33.5416 35.0577 30.4895 32.6098 28.3645ZM30.464 42.6874C28.7036 44.2187 26.4327 44.927 24.0681 44.677C20.3286 44.2708 17.2348 41.2083 16.8598 37.5416C16.5994 34.9583 17.589 32.4999 19.5577 30.7812C20.9431 29.5728 21.7348 27.8437 21.7348 26.0312V8.47909C21.7348 6.71867 23.2036 5.28117 25.0056 5.28117C26.8077 5.28117 28.2765 6.71867 28.2765 8.47909V26.0208C28.2765 27.8437 29.0681 29.5624 30.4327 30.7603C32.1827 32.2812 33.1827 34.4478 33.1827 36.7291C33.1931 38.9999 32.1931 41.1666 30.464 42.6874Z" fill="white"/>
<path d="M26.0994 32.5938V8.47925C26.0994 7.8855 25.6098 7.41675 25.0056 7.41675C24.4015 7.41675 23.9119 7.8855 23.9119 8.47925V32.5938C21.7244 33.0834 20.089 34.9793 20.089 37.2605C20.089 39.9063 22.2869 42.0522 24.9952 42.0522C27.7035 42.0522 29.9015 39.8959 29.9015 37.2605C29.9119 34.9793 28.2765 33.0834 26.0994 32.5938ZM25.0056 39.9272C23.5056 39.9272 22.2765 38.7293 22.2765 37.2605C22.2765 35.7918 23.4952 34.5938 25.0056 34.5938C26.516 34.5938 27.7348 35.7918 27.7348 37.2605C27.7348 38.7293 26.5056 39.9272 25.0056 39.9272Z" fill="white"/>
</svg>
